<svg width="66" height="34" viewBox="0 0 66 34" fill="none" xmlns="http://www.w3.org/2000/svg">
<path d="M8.249 8.556C8.79835 8.5681 9.34457 8.47034 9.85563 8.26848C10.3667 8.06661 10.8323 7.7647 11.2251 7.38046C11.6179 6.99622 11.9299 6.5374 12.143 6.03091C12.3561 5.52442 12.4658 4.98048 12.4658 4.431C12.4658 3.88152 12.3561 3.33758 12.143 2.83109C11.9299 2.3246 11.6179 1.86578 11.2251 1.48154C10.8323 1.0973 10.3667 0.795387 9.85563 0.593521C9.34457 0.391656 8.79835 0.293903 8.249 0.306C7.17071 0.329745 6.14458 0.774771 5.39037 1.54577C4.63616 2.31677 4.21384 3.35245 4.21384 4.431C4.21384 5.50955 4.63616 6.54523 5.39037 7.31623C6.14458 8.08723 7.17071 8.53226 8.249 8.556ZM57.748 10.912L49.5 25.054L41.248 10.912H33L45.374 33.305H53.626L66 10.912H57.748ZM0 10.912V19.163C1.0919 19.163 2.13907 19.5968 2.91116 20.3688C3.68325 21.1409 4.117 22.1881 4.117 23.28V33.3H12.374V23.285C12.3695 20.0047 11.0643 16.86 8.74471 14.5406C6.42508 12.2211 3.28032 10.9162 0 10.912ZM36.1 25.053H28.286C27.1943 25.053 26.1473 24.6194 25.3752 23.8475C24.6031 23.0756 24.1693 22.0287 24.169 20.937V19.172H32.853L28.286 10.912H24.169V4.422H15.935V20.931C15.9392 24.2117 17.2444 27.3567 19.5643 29.6764C21.8842 31.9961 25.0293 33.301 28.31 33.305H40.684L36.1 25.053Z" fill="#52B038"/>
</svg>
